<svg xmlns="http://www.w3.org/2000/svg" xmlns:xlink="http://www.w3.org/1999/xlink" x="0px" y="0px" width="25px" height="25px" viewBox="0 0 25 25" enable-background="new 0 0 25 25" xml:space="preserve"><path fill="#ffffff" d="M2.658,24.526l-2.18-2.195c-0.197-0.199-0.197-0.521,0-0.722l6.012-6.036	c-1.017-1.566-1.556-3.397-1.555-5.265c0-5.362,4.376-9.731,9.738-9.731c5.369,0,9.747,4.369,9.747,9.739s-4.385,9.738-9.755,9.738	c-1.923,0-3.735-0.577-5.25-1.563L3.388,24.52c-0.203,0.203-0.533,0.204-0.737,0.001l0-0.001 M14.673,16.96	c3.671,0,6.652-2.98,6.652-6.651s-2.981-6.637-6.652-6.637c-3.655,0-6.636,2.966-6.636,6.652s2.981,6.636,6.653,6.636"/></svg>