<svg xmlns="http://www.w3.org/2000/svg" width="500" height="500"><g transform="translate(0 -552.362)"><rect width="500" height="500" y="552.362" fill="#55acee" rx="250" ry="250"/><path fill="#fff" d="M309.85 672.3c-35.47.9-63.92 29.94-63.92 65.64 0 5.13.55 10.16 1.67 14.97-54.57-2.73-102.94-28.86-135.32-68.6-5.66 9.7-8.9 21-8.9 33.04 0 22.77 11.6 42.85 29.22 54.62a65.52 65.52 0 0 1-29.75-8.22c0 .27 0 .57 0 .85 0 31.8 22.64 58.3 52.68 64.34a66.02 66.02 0 0 1-17.3 2.3c-4.24 0-8.35-.4-12.35-1.18 8.36 26.08 32.57 45.08 61.3 45.6-22.47 17.6-50.74 28.1-81.5 28.1-5.3 0-10.54-.3-15.68-.9 29.06 18.64 63.55 29.5 100.63 29.5 120.76 0 186.8-100.04 186.8-186.8 0-2.84-.06-5.7-.18-8.52 12.82-9.24 23.95-20.8 32.75-33.98a130.6 130.6 0 0 1-37.7 10.35c13.56-8.1 23.97-20.97 28.88-36.3a131.5 131.5 0 0 1-41.7 15.94c-11.98-12.76-29.05-20.73-47.93-20.73-.57 0-1.14 0-1.7 0z"/></g></svg>