<svg xmlns="http://www.w3.org/2000/svg" width="200" height="50"><path fill="#ED3B3B" d="M0 0h200v50H0V0z"/><path fill="#FFF" d="M45.46 41.62c-.46 0-.88-.1-1.25-.3a3.06 3.06 0 0 1-.96-.78 3.6 3.6 0 0 1-.63-1.1 3.97 3.97 0 0 1-.2-1.33c0-.46.07-.9.24-1.33.17-.43.4-.8.68-1.12.3-.32.64-.58 1.03-.77a2.87 2.87 0 0 1 1.27-.28c.26 0 .5.03.76.1.25.08.48.18.7.3.2.13.4.28.6.46s.32.37.45.58V34.7h.8v8.37c0 .24.1.37.32.38v.77a1.4 1.4 0 0 1-.26.02h-.25a.76.76 0 0 1-.5-.25.77.77 0 0 1-.2-.55v-3.37c-.34.5-.72.9-1.16 1.15a2.74 2.74 0 0 1-1.44.4zm.27-.78c.26 0 .5-.05.74-.14a2.65 2.65 0 0 0 1.16-.85c.16-.2.3-.4.4-.6v-2.1a1.58 1.58 0 0 0-.27-.68 2.58 2.58 0 0 0-.54-.56c-.2-.16-.44-.28-.7-.38s-.5-.15-.74-.15c-.36 0-.7.08-1 .24s-.58.37-.8.63c-.22.25-.4.55-.5.88a2.98 2.98 0 0 0 0 2.06c.1.33.28.6.5.86.22.25.47.44.77.6.3.14.63.22 1 .22zm7.26.77c-.75.02-1.3-.23-1.66-.72-.36-.5-.54-1.22-.54-2.2v-3.97h.9v3.84c0 1.53.5 2.3 1.56 2.3a2.38 2.38 0 0 0 1.46-.5c.22-.18.4-.37.58-.6s.3-.48.4-.76V34.7h.9v5.64c0 .24.1.36.3.36v.78c-.1.03-.2.03-.25.03h-.14a.7.7 0 0 1-.5-.2c-.13-.15-.2-.33-.2-.57v-.78c-.3.53-.7.94-1.2 1.23a3.18 3.18 0 0 1-1.6.44zm7.3.02a2.38 2.38 0 0 1-.9-.17 2.2 2.2 0 0 1-.7-.45 2.02 2.02 0 0 1-.66-1.5c0-.28.07-.56.2-.8.15-.26.35-.48.6-.66.25-.18.55-.32.9-.42.34-.1.72-.15 1.14-.15.34 0 .7.03 1.05.1s.67.14.95.25v-.6c0-.6-.17-1.08-.5-1.43-.35-.36-.8-.54-1.4-.54-.36 0-.7.07-1.08.2-.36.15-.73.35-1.1.6l-.32-.58c.88-.6 1.73-.88 2.55-.88.85 0 1.52.24 2 .7s.73 1.15.73 2v3.04c0 .25.1.37.33.37v.8c-.16 0-.27.03-.35.03-.23 0-.4-.06-.53-.17a.63.63 0 0 1-.2-.47l-.02-.54a3.1 3.1 0 0 1-1.18.93c-.47.2-.98.3-1.53.3zm.2-.68c.46 0 .88-.1 1.27-.26s.68-.4.87-.7a.82.82 0 0 0 .18-.24.66.66 0 0 0 .06-.26v-1.1c-.3-.1-.6-.2-.92-.26a5.1 5.1 0 0 0-.97-.1c-.63 0-1.14.14-1.53.4-.4.26-.58.6-.58 1.02 0 .2.03.4.1.6s.2.33.35.46.3.24.5.32c.2.08.42.12.65.12zm10.87.55h-.88v-3.8c0-.8-.13-1.4-.37-1.75-.24-.37-.6-.55-1.1-.55-.26 0-.52.05-.78.14-.26.1-.5.23-.72.4a3.13 3.13 0 0 0-.6.62c-.17.24-.3.5-.37.78v4.14h-.88v-6.77h.8v1.55a3.17 3.17 0 0 1 1.2-1.2 3.26 3.26 0 0 1 1.67-.45c.38 0 .7.07.95.2.26.14.47.34.63.6.15.24.27.55.34.9.07.38.1.78.1 1.22v3.97zm4.67.12c-.47 0-.9-.1-1.3-.3-.4-.2-.74-.45-1.03-.77a3.55 3.55 0 0 1-.66-1.1 3.65 3.65 0 0 1-.24-1.33c0-.48.08-.93.23-1.36.16-.43.37-.8.65-1.12a3.04 3.04 0 0 1 .97-.76c.38-.2.8-.28 1.24-.28.57 0 1.07.15 1.5.45.46.3.8.66 1.06 1.08V32h.88v8.34c0 .25.1.37.3.37v.8c-.12 0-.22.03-.3.03a.82.82 0 0 1-.55-.2.62.62 0 0 1-.24-.5v-.66c-.27.45-.63.8-1.1 1.06s-.93.4-1.42.4zm.2-.78c.2 0 .44-.05.7-.14.23-.08.47-.2.68-.35.22-.15.4-.33.55-.54.15-.2.25-.4.28-.64v-2.1a2.3 2.3 0 0 0-.37-.65c-.17-.2-.36-.37-.57-.53s-.43-.28-.67-.36-.48-.12-.72-.12a2.08 2.08 0 0 0-.98.23 2.53 2.53 0 0 0-.76.63c-.2.25-.37.55-.48.88a3.1 3.1 0 0 0-.17 1.02c0 .36.07.7.2 1.04.13.33.3.62.54.86.22.25.5.45.8.6.3.14.64.22 1 .22zm8 .77c-.5.02-.96-.08-1.36-.26a3.3 3.3 0 0 1-1.06-.77 3.44 3.44 0 0 1-.7-1.1 3.66 3.66 0 0 1-.25-1.35 3.6 3.6 0 0 1 .26-1.35c.17-.43.4-.8.7-1.12a3.4 3.4 0 0 1 1.06-.77c.4-.2.84-.3 1.33-.3s.93.1 1.34.3c.42.2.77.45 1.07.77s.53.7.7 1.12c.17.42.25.87.25 1.35 0 .46-.1.9-.25 1.34a3.44 3.44 0 0 1-.7 1.1 3.26 3.26 0 0 1-2.42 1.06zm-2.47-3.47a2.83 2.83 0 0 0 .72 1.92c.2.25.47.44.77.58.3.14.62.2.96.2.33 0 .65-.07.95-.2.3-.15.56-.35.8-.6a2.8 2.8 0 0 0 .52-.86c.13-.33.2-.68.2-1.06a2.9 2.9 0 0 0-.73-1.92 2.52 2.52 0 0 0-.8-.6 2.2 2.2 0 0 0-.94-.2c-.34 0-.66.07-.95.2a2.5 2.5 0 0 0-.78.6 2.88 2.88 0 0 0-.54.88 2.93 2.93 0 0 0-.2 1.07zm13.55 3.48a3.24 3.24 0 0 1-1.36-.26 3.3 3.3 0 0 1-1.08-.77c-.3-.33-.54-.7-.7-1.13a3.67 3.67 0 0 1-.26-1.36 3.55 3.55 0 0 1 .96-2.45c.3-.32.65-.57 1.07-.76.42-.18.87-.28 1.35-.28a3.23 3.23 0 0 1 2.42 1.03 3.55 3.55 0 0 1 .94 2.44v.2a.56.56 0 0 1-.02.15h-5.8c.03.36.12.7.26 1 .14.3.33.58.55.8.23.23.48.4.77.53a2.4 2.4 0 0 0 1.58.1c.22-.06.42-.14.6-.25s.35-.23.5-.38c.14-.15.26-.32.33-.5l.77.2c-.1.26-.25.5-.44.7-.2.2-.4.37-.66.52-.25.15-.53.27-.84.35-.3.07-.62.1-.95.1zm2.5-3.86a2.73 2.73 0 0 0-.8-1.76 2.4 2.4 0 0 0-1.7-.7 2.44 2.44 0 0 0-1.7.7c-.23.2-.4.47-.55.78a2.94 2.94 0 0 0-.24.98h4.98zm4.45 3.88a4.7 4.7 0 0 1-1.55-.26 3.72 3.72 0 0 1-1.3-.76l.4-.6c.4.32.78.55 1.17.7.4.16.8.24 1.26.24.54 0 .98-.1 1.3-.33.33-.2.5-.53.5-.93a.82.82 0 0 0-.14-.48c-.08-.13-.2-.24-.38-.34s-.38-.18-.64-.25a20.84 20.84 0 0 0-.9-.22c-.38-.1-.72-.2-1-.3a3.15 3.15 0 0 1-.7-.3 1.17 1.17 0 0 1-.43-.46 1.47 1.47 0 0 1-.13-.67c0-.34.06-.64.2-.9.13-.26.3-.47.54-.64s.5-.3.8-.37a3.55 3.55 0 0 1 1-.13c.5 0 .98.08 1.4.25.43.17.77.4 1.03.67l-.42.52a2.4 2.4 0 0 0-.9-.6 3.3 3.3 0 0 0-1.14-.18c-.23 0-.45.02-.65.07s-.38.12-.53.23a1.1 1.1 0 0 0-.5.96c0 .18.04.33.1.44.06.1.16.2.3.3s.3.15.53.2c.2.08.47.15.77.22.43.1.8.2 1.14.3.34.1.62.23.84.37s.4.3.5.5.17.45.17.74c0 .6-.23 1.1-.7 1.47-.48.36-1.12.54-1.93.54zm7.33-.46a4.32 4.32 0 0 1-.57.23c-.13.04-.28.08-.44.1s-.35.06-.53.06c-.2 0-.38-.02-.55-.07a1.32 1.32 0 0 1-.45-.25 1.22 1.22 0 0 1-.43-1v-4.84h-.94v-.7h.94v-2.27h.88v2.28h1.56v.7h-1.56v4.62c.02.25.1.43.27.55.15.12.33.18.54.18.25 0 .47-.04.67-.13.2-.08.32-.14.37-.17l.23.7zm1.1-7.86V32h.9v1.3h-.9zm0 8.2v-6.8h.9v6.8h-.9zm4.87 0l-2.76-6.8h.92l2.33 5.97 2.34-5.96h.85l-2.76 6.8h-.93zm7.6.12c-.5 0-.96-.1-1.37-.28a3.3 3.3 0 0 1-1.07-.77c-.3-.33-.54-.7-.7-1.13a3.65 3.65 0 0 1-.26-1.36 3.55 3.55 0 0 1 .95-2.45c.3-.32.66-.57 1.08-.76.4-.18.86-.28 1.35-.28a3.23 3.23 0 0 1 2.42 1.03c.3.33.52.7.68 1.1s.25.87.25 1.34v.2a.5.5 0 0 1 0 .15h-5.8a2.82 2.82 0 0 0 .8 1.8c.22.23.48.4.77.53a2.38 2.38 0 0 0 1.58.1c.2-.06.4-.14.6-.25a2.2 2.2 0 0 0 .5-.38c.14-.15.25-.32.33-.5l.77.2c-.1.26-.25.5-.44.7a3.2 3.2 0 0 1-1.5.87c-.3.07-.6.1-.94.1zm2.5-3.88a2.7 2.7 0 0 0-.8-1.76 2.42 2.42 0 0 0-1.7-.7 2.44 2.44 0 0 0-1.72.7c-.22.2-.4.47-.53.78s-.22.63-.24.98h4.98zm5.58-2.25c-.6 0-1.12.18-1.56.5a2.5 2.5 0 0 0-.95 1.27v4.22h-.9v-6.8h.85v1.64c.25-.52.6-.93 1-1.23.44-.28.9-.43 1.38-.43a.78.78 0 0 1 .16.02v.8zm6.97 6.12c-.47 0-.9-.1-1.3-.3a3.33 3.33 0 0 1-1.03-.77 3.55 3.55 0 0 1-.68-1.1 3.65 3.65 0 0 1-.24-1.33c0-.48.08-.93.23-1.36.17-.43.38-.8.66-1.12a3.04 3.04 0 0 1 .97-.76c.38-.2.8-.28 1.24-.28.57 0 1.08.15 1.52.45.44.3.78.66 1.03 1.08V32h.9v8.34c0 .25.1.37.3.37v.8c-.13 0-.23.03-.3.03a.82.82 0 0 1-.56-.2.63.63 0 0 1-.23-.5v-.66a2.96 2.96 0 0 1-1.1 1.06c-.45.26-.93.4-1.42.4zm.2-.78c.2 0 .44-.05.7-.14.23-.08.46-.2.68-.35.22-.15.4-.33.55-.54.15-.2.25-.4.28-.64v-2.1a2.3 2.3 0 0 0-.38-.65c-.16-.2-.35-.37-.56-.53s-.45-.28-.7-.36a2.13 2.13 0 0 0-1.7.1 2.52 2.52 0 0 0-.76.63c-.2.25-.37.55-.48.88-.12.33-.17.67-.17 1.02 0 .36.05.7.18 1.04.13.33.3.62.54.86.22.25.5.45.8.6.3.14.64.22 1 .22zm5.1-7.55V32h.88v1.3h-.88zm0 8.2v-6.8h.88v6.8h-.88zm5.08.12c-.53 0-1.04-.1-1.54-.26s-.94-.43-1.3-.76l.4-.6c.38.32.77.55 1.16.7.4.16.82.24 1.27.24.54 0 .97-.1 1.3-.33.32-.2.48-.53.48-.93 0-.2-.04-.35-.13-.48s-.2-.24-.38-.34-.38-.18-.64-.25a20.84 20.84 0 0 0-.9-.22 14.04 14.04 0 0 1-1-.3c-.3-.08-.52-.2-.7-.3s-.34-.28-.43-.46-.13-.4-.13-.67c0-.34.06-.64.2-.9.13-.26.3-.47.54-.64s.5-.3.82-.37c.3-.1.63-.13.98-.13.52 0 1 .08 1.42.25.42.17.76.4 1.02.67l-.43.52a2.4 2.4 0 0 0-.9-.6 3.3 3.3 0 0 0-1.13-.18c-.23 0-.45.02-.65.07s-.37.12-.52.23c-.15.1-.27.23-.36.4s-.13.34-.13.56c0 .18.04.33.1.44.06.1.16.2.3.3s.32.15.53.2c.2.08.47.15.77.22.43.1.8.2 1.15.3.33.1.6.23.82.37s.4.3.5.5c.1.2.17.45.17.74 0 .6-.24 1.1-.7 1.47-.5.36-1.13.54-1.94.54zm7.54 0c-.57 0-1.07-.15-1.5-.44a3.45 3.45 0 0 1-1.07-1.1v4.17h-.9V34.7h.8v1.32a3.28 3.28 0 0 1 1.1-1.03 2.76 2.76 0 0 1 1.43-.4c.47 0 .9.1 1.3.3.38.18.7.44 1 .77.28.32.5.7.67 1.12.16.4.24.85.24 1.3 0 .48-.06.93-.2 1.36a3.4 3.4 0 0 1-.64 1.12c-.28.32-.6.57-.98.76-.37.18-.8.27-1.24.27zm-.24-.78c.36 0 .7-.08 1-.24s.54-.36.76-.6c.2-.27.37-.56.48-.88.12-.33.17-.66.17-1a2.88 2.88 0 0 0-.7-1.92 2.5 2.5 0 0 0-.82-.6 2.27 2.27 0 0 0-1-.22c-.22 0-.45.04-.7.13a2.93 2.93 0 0 0-.7.38c-.2.15-.38.33-.53.53a1.42 1.42 0 0 0-.28.65v2.08c.1.25.23.47.4.68a2.7 2.7 0 0 0 1.2.9c.23.1.47.13.72.13zm7.7.77c-.5.02-.95-.08-1.36-.26-.4-.2-.76-.44-1.06-.77s-.53-.7-.7-1.1a3.66 3.66 0 0 1-.24-1.35 3.62 3.62 0 0 1 .95-2.47c.3-.32.64-.58 1.05-.77.4-.2.86-.3 1.34-.3s.92.1 1.34.3c.4.2.76.45 1.06.77s.53.7.7 1.12c.17.42.26.87.26 1.35 0 .46-.1.9-.25 1.34-.15.42-.38.8-.68 1.1a3.25 3.25 0 0 1-2.43 1.06zm-2.47-3.47a2.83 2.83 0 0 0 .72 1.92c.23.25.48.44.78.58.3.14.62.2.96.2s.65-.07.95-.2.56-.35.78-.6c.23-.24.4-.53.54-.86s.2-.68.2-1.06a2.9 2.9 0 0 0-.74-1.92c-.22-.25-.5-.45-.79-.6s-.6-.2-.95-.2-.66.07-.96.2c-.3.15-.55.35-.78.6s-.4.55-.53.88a2.93 2.93 0 0 0-.2 1.07zm13 3.36h-.88v-3.8c0-.8-.12-1.4-.36-1.75-.25-.37-.6-.55-1.1-.55-.27 0-.53.05-.8.14s-.5.23-.7.4c-.23.18-.43.4-.6.62-.17.24-.3.5-.38.78v4.14h-.88v-6.77h.8v1.55c.28-.5.68-.9 1.2-1.2s1.07-.45 1.68-.45c.37 0 .68.07.94.2.26.14.47.34.63.6.15.24.26.55.33.9.07.38.1.78.1 1.22v3.97zm2.4-8.07l-.58-.22.77-1.2h.94l-1.12 1.43zm-.5 8.06v-6.8h.87v6.8h-.88zm4.85 0l-2.76-6.8h.9l2.34 5.97 2.34-5.96h.86l-2.76 6.8h-.92zm7.6.12a3.25 3.25 0 0 1-2.44-1.05c-.3-.33-.54-.7-.7-1.13a3.67 3.67 0 0 1-.26-1.36c0-.48.1-.93.25-1.35s.4-.8.7-1.1a3.36 3.36 0 0 1 1.08-.76c.42-.18.87-.28 1.36-.28a3.22 3.22 0 0 1 2.42 1.03 3.6 3.6 0 0 1 .93 2.43v.22a.5.5 0 0 1 0 .14H186c.03.36.1.7.26 1 .14.3.32.58.55.8.23.23.5.4.78.53a2.38 2.38 0 0 0 1.58.1c.22-.06.42-.14.6-.25a2.2 2.2 0 0 0 .5-.38c.14-.15.25-.32.33-.5l.76.2c-.1.26-.25.5-.44.7a3.2 3.2 0 0 1-1.5.87c-.3.07-.62.1-.95.1zm2.5-3.88a2.73 2.73 0 0 0-.8-1.76 2.42 2.42 0 0 0-1.7-.7 2.44 2.44 0 0 0-1.72.7c-.22.2-.4.47-.53.78a2.96 2.96 0 0 0-.24.98h4.97zM193.2 32h.88v7.95c0 .25.07.45.2.6.15.14.34.2.6.2a2.23 2.23 0 0 0 .7-.13l.15.7a3 3 0 0 1-.6.18 3.38 3.38 0 0 1-.62.07c-.4 0-.73-.12-.96-.35-.23-.23-.35-.55-.35-.97V32zm3.72 6.52v-6.36h.88v6.36h-.9zm0 2.97v-1.47h.88v1.46h-.9zM51.78 21.55v2.14h-8.72V11.12h8.56v2.14H45.5v3.02h5.3v1.97h-5.3v3.28h6.28zm9.13-7.14a2.98 2.98 0 0 0-.44-.32c-.22-.14-.48-.28-.8-.42s-.65-.25-1-.34a4.46 4.46 0 0 0-1.13-.15c-.67 0-1.17.13-1.5.38-.33.24-.5.6-.5 1.04 0 .25.06.47.2.64.1.17.3.32.53.45s.53.24.9.34c.35.1.77.22 1.24.34.6.16 1.17.34 1.67.53.5.2.93.43 1.28.72s.6.62.8 1c.2.4.28.9.28 1.47 0 .66-.12 1.24-.38 1.72-.25.48-.6.86-1.02 1.16s-.93.5-1.5.64a7.44 7.44 0 0 1-1.75.2 9.47 9.47 0 0 1-2.8-.42 8.63 8.63 0 0 1-2.47-1.2l1.1-2.1c.1.1.3.24.57.4.27.18.6.35.98.53.37.17.8.3 1.25.43.46.12.94.18 1.42.18 1.34 0 2.02-.43 2.02-1.3 0-.27-.08-.5-.23-.7a1.97 1.97 0 0 0-.65-.48 6.23 6.23 0 0 0-1.02-.4c-.4-.1-.85-.24-1.35-.38a11.33 11.33 0 0 1-1.56-.54 4.13 4.13 0 0 1-1.1-.7 2.6 2.6 0 0 1-.68-.9c-.14-.36-.22-.78-.22-1.26 0-.64.12-1.2.36-1.7.23-.5.56-.9.98-1.24.42-.33.9-.58 1.46-.75a6.04 6.04 0 0 1 1.8-.26c.87 0 1.7.14 2.43.4a9.1 9.1 0 0 1 1.94 1l-1.1 1.97zM73 22.29c-1 1-2.17 1.5-3.5 1.5-.83 0-1.6-.16-2.33-.5a5.9 5.9 0 0 1-1.9-1.35A6.5 6.5 0 0 1 64 19.87a6.78 6.78 0 0 1-.47-2.54c0-.86.16-1.67.47-2.43.3-.76.74-1.43 1.3-2s1.2-1.02 1.93-1.36a5.8 5.8 0 0 1 2.42-.5c1.18 0 2.2.24 3.04.74a4.8 4.8 0 0 1 1.9 2l-1.83 1.34a3.38 3.38 0 0 0-1.34-1.43 3.67 3.67 0 0 0-1.86-.5c-.53 0-1.02.1-1.46.33s-.8.53-1.12.92c-.32.4-.56.84-.73 1.35a5 5 0 0 0-.26 1.6c0 .6.1 1.15.27 1.66s.45.96.78 1.34c.33.37.72.67 1.18.9s.95.32 1.48.32c1.22 0 2.32-.58 3.3-1.72v-.88h-2.53v-1.8h4.55v6.47H73v-1.43zm9.46 1.5c-.92 0-1.75-.18-2.5-.54a6.14 6.14 0 0 1-1.93-1.43 6.52 6.52 0 0 1-1.25-2.04 6.5 6.5 0 0 1-.44-2.36c0-.83.16-1.64.47-2.4.32-.77.75-1.45 1.3-2.04s1.2-1.06 1.96-1.4 1.57-.53 2.46-.53c.9 0 1.73.2 2.48.56s1.4.85 1.92 1.45.95 1.3 1.24 2.05c.3.77.44 1.55.44 2.34a6.34 6.34 0 0 1-.46 2.4 6.5 6.5 0 0 1-1.27 2 6.12 6.12 0 0 1-1.95 1.4 5.78 5.78 0 0 1-2.46.53zm-3.64-6.37c0 .55.08 1.07.25 1.58.16.5.4.96.7 1.34s.7.7 1.16.94c.46.24.97.36 1.55.36.6 0 1.1-.12 1.56-.37a3.56 3.56 0 0 0 1.15-.96 4.3 4.3 0 0 0 .7-1.36c.16-.5.24-1 .24-1.53 0-.54-.08-1.06-.25-1.57s-.43-.95-.74-1.34-.7-.7-1.15-.94a3.34 3.34 0 0 0-1.52-.35c-.6 0-1.12.13-1.58.38-.46.24-.84.56-1.15.95-.3.4-.54.84-.7 1.35a5.1 5.1 0 0 0-.23 1.53zm20.47-4.13h-4.03V23.7h-2.42V13.26h-4.02v-2.14H99.3v2.14zm3.88-2.15h2.16l4.78 12.57h-2.52l-1.16-3.14h-4.4l-1.14 3.13h-2.5l4.78-12.58zm2.82 7.72l-1.74-4.94-1.8 4.94H106zm5.5 4.85V11.1h4.56c1.03 0 1.93.17 2.7.5.77.33 1.42.78 1.94 1.35.52.56.9 1.23 1.17 2s.4 1.56.4 2.42c0 .94-.16 1.8-.45 2.58a5.52 5.52 0 0 1-1.24 1.98 5.6 5.6 0 0 1-1.96 1.28c-.76.3-1.6.45-2.56.45h-4.56zm8.3-6.3c0-.6-.1-1.17-.25-1.68-.17-.5-.4-.94-.73-1.3s-.7-.65-1.17-.85-1-.3-1.6-.3h-2.1v8.28h2.1c.6 0 1.15-.1 1.6-.32s.87-.5 1.18-.88.55-.8.72-1.32a5.3 5.3 0 0 0 .25-1.64zm9.73 6.38c-.92 0-1.76-.2-2.5-.55s-1.4-.83-1.93-1.43a6.5 6.5 0 0 1-1.25-2.04 6.5 6.5 0 0 1-.44-2.36c0-.83.16-1.64.48-2.4s.74-1.45 1.3-2.04c.54-.6 1.2-1.06 1.94-1.4a5.8 5.8 0 0 1 2.46-.53c.9 0 1.74.2 2.5.56.74.36 1.38.85 1.9 1.45s.95 1.3 1.25 2.05c.3.77.44 1.55.44 2.34a6.34 6.34 0 0 1-.46 2.4 6.5 6.5 0 0 1-1.27 2 6.13 6.13 0 0 1-1.94 1.4 5.77 5.77 0 0 1-2.47.53zm-3.65-6.38c0 .55.1 1.07.25 1.58.17.5.4.96.72 1.34s.7.7 1.15.94.97.36 1.55.36c.6 0 1.1-.12 1.56-.37.46-.24.85-.56 1.16-.96s.55-.86.7-1.36a5.03 5.03 0 0 0 0-3.1c-.18-.52-.42-.96-.74-1.35s-.7-.7-1.15-.94a3.34 3.34 0 0 0-1.53-.35c-.6 0-1.1.13-1.57.38s-.84.56-1.15.95c-.3.4-.54.84-.7 1.35-.16.5-.24 1-.24 1.53zM144.84 23.05c-.32 0-.6-.06-.9-.17a2.24 2.24 0 0 1-.7-.45 2.05 2.05 0 0 1-.48-.66 2.04 2.04 0 0 1-.16-.83c0-.3.06-.57.2-.82s.34-.46.6-.65c.24-.18.54-.32.88-.42.35-.1.73-.15 1.15-.15.34 0 .7.03 1.05.1s.67.14.95.25v-.6c0-.6-.17-1.08-.5-1.43-.35-.35-.8-.53-1.4-.53-.36 0-.7.06-1.08.2s-.73.34-1.1.6l-.32-.6c.88-.58 1.73-.87 2.55-.87.85 0 1.52.24 2 .7s.73 1.15.73 2v3.05c0 .24.12.36.34.36v.78c-.15.02-.26.04-.34.04-.22 0-.4-.06-.52-.17s-.2-.28-.2-.48l-.03-.53c-.3.4-.7.7-1.18.92-.47.22-.98.33-1.53.33zm.2-.68c.47 0 .9-.1 1.28-.26.4-.16.68-.4.88-.68a.8.8 0 0 0 .17-.25.66.66 0 0 0 .06-.26v-1.1a5.56 5.56 0 0 0-.9-.25c-.33-.06-.65-.1-.98-.1-.63 0-1.13.14-1.52.4-.4.26-.6.6-.6 1.03 0 .2.05.4.13.58s.2.34.34.48.3.24.52.3c.2.1.4.13.63.13zm7.03.55l-2.75-6.78h.9l2.33 5.96 2.34-5.96h.85L153 22.92h-.93zm4.9-8.2v-1.3h.9v1.3h-.9zm0 8.2v-6.78h.9v6.78h-.9zm5.1.13c-.54 0-1.06-.1-1.56-.26a3.73 3.73 0 0 1-1.3-.77l.4-.6c.4.32.78.55 1.17.7.4.16.82.24 1.27.24.55 0 .98-.1 1.3-.33.33-.22.5-.54.5-.95 0-.2-.05-.36-.13-.48a1.15 1.15 0 0 0-.38-.33 3.02 3.02 0 0 0-.64-.27c-.25-.07-.55-.15-.9-.22a13.08 13.08 0 0 1-1-.28 3.13 3.13 0 0 1-.7-.32 1.15 1.15 0 0 1-.42-.45c-.1-.18-.14-.4-.14-.67 0-.34.07-.64.2-.9.14-.26.32-.47.55-.64.23-.17.5-.3.8-.4s.64-.12.98-.12c.52 0 1 .1 1.42.26.43.17.77.4 1.03.67l-.43.52c-.25-.26-.56-.46-.92-.6s-.73-.18-1.12-.18c-.24 0-.45 0-.65.06s-.38.12-.53.22a1.1 1.1 0 0 0-.35.4c-.1.16-.13.35-.13.57 0 .18.03.32.1.44.05.1.15.2.3.28s.3.16.5.22c.22.07.48.13.8.2.42.1.8.2 1.13.3.33.12.6.24.82.38s.4.3.5.5c.12.2.17.45.17.73 0 .64-.24 1.13-.72 1.5s-1.12.54-1.92.54zm7 0a3.26 3.26 0 0 1-2.44-1.05 3.53 3.53 0 0 1-.7-1.13 3.64 3.64 0 0 1-.26-1.36 3.56 3.56 0 0 1 .96-2.44c.3-.32.65-.57 1.07-.75s.87-.27 1.35-.27c.5 0 .95.1 1.36.28s.78.45 1.07.77c.3.32.53.7.7 1.1.15.42.24.86.24 1.33v.2a.55.55 0 0 1 0 .15h-5.8a2.8 2.8 0 0 0 .8 1.8c.23.23.5.4.78.53a2.38 2.38 0 0 0 1.58.1c.2-.06.4-.14.6-.25a2.2 2.2 0 0 0 .5-.38c.13-.15.25-.32.33-.5l.75.2a2.26 2.26 0 0 1-.44.7c-.18.2-.4.37-.65.52-.25.16-.53.27-.83.36-.3.08-.62.12-.95.12zm2.5-3.88a2.7 2.7 0 0 0-.27-1 2.7 2.7 0 0 0-.54-.77 2.42 2.42 0 0 0-1.7-.68c-.33 0-.64.06-.93.18-.3.12-.56.3-.78.5s-.4.48-.53.8a2.92 2.92 0 0 0-.24.97h4.98zm2.07.6v-.8h3.8v.8h-3.8zm15.7 3.15h-.9v-3.8c0-.77-.12-1.36-.37-1.73-.25-.38-.62-.57-1.12-.57-.26 0-.5.05-.73.15-.23.1-.44.23-.64.4a2.8 2.8 0 0 0-.5.6c-.16.25-.27.5-.35.8v4.14h-.9v-3.8c0-.8-.1-1.38-.35-1.74-.24-.37-.62-.55-1.12-.55-.5 0-.96.18-1.36.53-.4.36-.7.83-.86 1.4v4.15h-.9v-6.76h.82v1.53a3.2 3.2 0 0 1 1.1-1.2 2.7 2.7 0 0 1 1.5-.45c.56 0 1.02.16 1.36.48.34.32.55.74.63 1.26.63-1.16 1.5-1.74 2.6-1.74.4 0 .72.07.98.2s.48.35.64.6c.16.26.27.56.35.92.07.36.1.76.1 1.2v3.97zm4.8.13A3.27 3.27 0 0 1 191.7 22c-.3-.33-.54-.7-.7-1.13s-.27-.88-.27-1.36c0-.47.1-.9.26-1.34.16-.42.4-.78.7-1.1s.65-.57 1.06-.75.87-.27 1.35-.27a3.23 3.23 0 0 1 2.43 1.04 3.58 3.58 0 0 1 .94 2.43v.2c0 .08 0 .12 0 .15h-5.8c0 .36.1.7.24 1s.34.58.56.8c.23.23.48.4.78.53a2.38 2.38 0 0 0 1.58.1 2.73 2.73 0 0 0 .6-.25c.18-.1.34-.23.5-.38.13-.15.25-.32.33-.5l.76.2c-.1.26-.24.5-.43.7-.2.2-.4.37-.66.52-.24.15-.52.27-.82.35-.3.1-.62.13-.95.13zm2.48-3.88a2.73 2.73 0 0 0-.8-1.77 2.43 2.43 0 0 0-.76-.5 2.38 2.38 0 0 0-.93-.18 2.42 2.42 0 0 0-2.25 1.47 2.94 2.94 0 0 0-.24.97h4.98z"/><path fill="#B71C1C" d="M0 0h35.84v50H0V0z"/><path fill="#FFCDD2" d="M17.43 10.4c-7.88-.06-14.32 6.27-14.4 14.15-.06 7.88 6.28 14.33 14.16 14.4 7.87.06 14.3-6.27 14.38-14.15.06-7.88-6.27-14.33-14.15-14.4zm-.23 26.53c-6.76-.06-12.2-5.6-12.14-12.36.05-6.77 5.6-12.2 12.35-12.15 6.78.06 12.22 5.6 12.16 12.36-.06 6.76-5.6 12.2-12.36 12.15z"/><circle cx="17.308" cy="24.676" r="11.039" fill="#FFCDD2"/><path fill="#F44336" d="M23.92 27.93l-3.36 3.35-3.25-3.25-3.25 3.25-3.35-3.35 3.25-3.25-3.25-3.26 3.35-3.35 3.26 3.25 3.26-3.25 3.36 3.35-3.26 3.26 3.26 3.25z"/></svg>