<svg xmlns="http://www.w3.org/2000/svg" width="200" height="50"><path fill="#689F38" d="M0 0h200v50H0V0z"/><path fill="#FFF" d="M65.76 24.5c0-1.05.2-2.07.56-3.08a8.34 8.34 0 0 1 1.64-2.72 8.3 8.3 0 0 1 2.63-1.93c1.03-.5 2.2-.74 3.53-.74 1.56 0 2.9.34 4.05 1.03s2 1.57 2.54 2.67l-2.53 1.75a4.33 4.33 0 0 0-.82-1.2 4.1 4.1 0 0 0-1.03-.8c-.37-.18-.75-.32-1.15-.4a5.48 5.48 0 0 0-1.17-.13c-.83 0-1.55.16-2.16.5a4.75 4.75 0 0 0-1.53 1.3 5.76 5.76 0 0 0-.92 1.8 6.9 6.9 0 0 0-.3 2.03c0 .75.1 1.47.34 2.17a5.75 5.75 0 0 0 1.02 1.83c.44.52.96.94 1.58 1.26a4.32 4.32 0 0 0 2.02.48c.38 0 .78-.05 1.2-.14a4.5 4.5 0 0 0 2.22-1.26c.3-.32.57-.72.76-1.18l2.7 1.55c-.27.63-.66 1.2-1.16 1.68-.5.48-1.06.9-1.7 1.23-.62.34-1.3.6-2 .77a8.85 8.85 0 0 1-2.12.27c-1.2 0-2.32-.26-3.32-.77s-1.87-1.17-2.6-2a9.25 9.25 0 0 1-1.7-2.8 8.77 8.77 0 0 1-.6-3.18zm24.5 8.7c-1.24 0-2.37-.23-3.38-.72s-1.88-1.13-2.6-1.93a8.8 8.8 0 0 1-1.7-2.76 8.8 8.8 0 0 1-.6-3.2c0-1.12.22-2.2.64-3.24a8.96 8.96 0 0 1 1.75-2.75A8.33 8.33 0 0 1 87 16.7c1.03-.46 2.14-.7 3.33-.7 1.23 0 2.35.25 3.36.76a8.4 8.4 0 0 1 2.58 1.97 9.1 9.1 0 0 1 1.68 2.77 8.73 8.73 0 0 1 .6 3.16c0 1.13-.2 2.2-.63 3.24a8.82 8.82 0 0 1-1.72 2.72 8.28 8.28 0 0 1-2.62 1.9c-1.02.46-2.12.7-3.32.7zm-4.92-8.6c0 .74.1 1.45.33 2.13.23.7.55 1.3.97 1.82.42.52.94.95 1.55 1.27.6.32 1.3.48 2.08.48.8 0 1.5-.17 2.12-.5s1.13-.76 1.55-1.3c.43-.54.74-1.15.96-1.83a6.8 6.8 0 0 0 .33-2.06c0-.72-.1-1.43-.34-2.12s-.57-1.3-1-1.82c-.42-.52-.93-.94-1.55-1.25s-1.3-.46-2.06-.46c-.8 0-1.52.17-2.14.5a4.72 4.72 0 0 0-1.56 1.28 5.8 5.8 0 0 0-.94 1.82 6.82 6.82 0 0 0-.32 2.07zm29.6 8.5V21.85l-4.4 8.36h-1.78l-4.37-8.36V33.1h-3.3V16.1h3.53l5 9.66 5.08-9.66h3.53V33.1h-3.3zm6.82 0V16.1h7.2c.78 0 1.5.17 2.16.5.66.32 1.23.75 1.7 1.28.5.54.86 1.14 1.13 1.82.27.68.4 1.36.4 2.04 0 .72-.12 1.42-.38 2.1s-.6 1.27-1.07 1.8a5.3 5.3 0 0 1-1.67 1.26c-.66.32-1.37.48-2.15.48h-4.02v5.7h-3.3zm3.3-8.6h3.82c.6 0 1.1-.23 1.52-.73.4-.5.6-1.16.6-2 0-.44-.05-.82-.18-1.17a2.83 2.83 0 0 0-.5-.87 2 2 0 0 0-.73-.54 2.13 2.13 0 0 0-.86-.2h-3.68v5.5zm11.6 8.6V16.1h7.5c.78 0 1.5.17 2.16.5.66.32 1.23.75 1.7 1.28.5.54.86 1.14 1.13 1.82.27.68.4 1.36.4 2.04 0 1.1-.27 2.1-.82 3s-1.3 1.55-2.23 1.95l3.87 6.4h-3.7l-3.47-5.7h-3.25v5.7h-3.3zm3.3-8.6h4.12c.3 0 .6-.06.85-.2.27-.15.5-.34.68-.6s.36-.53.47-.86.17-.7.17-1.08a3.06 3.06 0 0 0-.2-1.1 2.88 2.88 0 0 0-.5-.87 2.32 2.32 0 0 0-.75-.58 1.94 1.94 0 0 0-.86-.2h-4v5.5zm17.15-8.38h2.93l6.45 16.97h-3.4l-1.57-4.24h-5.92l-1.56 4.23h-3.4l6.5-16.98zm3.8 10.42l-2.33-6.67-2.44 6.67h4.78zm7.44 6.55V16.1h7.5c.8 0 1.5.17 2.17.5.67.32 1.24.75 1.72 1.28.48.54.85 1.14 1.12 1.82.27.68.4 1.36.4 2.04 0 1.1-.27 2.1-.82 3s-1.3 1.55-2.23 1.95l3.86 6.4h-3.7l-3.47-5.7h-3.26v5.7h-3.3zm3.3-8.6h4.14c.3 0 .58-.06.84-.2.27-.15.5-.34.7-.6s.33-.53.44-.86.17-.7.17-1.08a3.06 3.06 0 0 0-.2-1.1 2.88 2.88 0 0 0-.5-.87 2.32 2.32 0 0 0-.75-.58 1.94 1.94 0 0 0-.85-.2h-4v5.5z"/><path fill="#33691E" d="M0 0h47.17v50H0V0z"/><path fill="#FFF" d="M16.72 28.17l15.8-3.03 1.6-8H14.84l-1-3.9H9.72l.46 1.8h2l2.94 11.62c-1.85.77-2.65 5.67 1.72 5.67H32.6l.38-2s-13.65-.02-15.66-.02c-2 0-2.06-1.78-.6-2.13z"/><circle cx="18.51" cy="34.922" r="1.83" fill="#FFF"/><circle cx="29.627" cy="34.922" r="1.83" fill="#FFF"/></svg>