<svg xmlns="http://www.w3.org/2000/svg" width="200" height="50"><path fill="#039BE5" d="M0 0h200v50H0V0z"/><path fill="#FFF" d="M67.3 13.9c-.1-.1-.32-.27-.63-.47-.3-.2-.7-.4-1.13-.6a9.8 9.8 0 0 0-1.44-.48 6.28 6.28 0 0 0-1.58-.2c-.95 0-1.66.18-2.13.53-.48.35-.7.84-.7 1.48 0 .36.08.67.25.9.18.25.43.46.77.65.33.2.75.36 1.26.5.5.16 1.1.32 1.77.5a25.9 25.9 0 0 1 2.36.74c.72.27 1.32.6 1.82 1s.87.88 1.14 1.44c.26.56.4 1.25.4 2.07 0 .95-.18 1.76-.54 2.44a4.52 4.52 0 0 1-1.45 1.63 6.3 6.3 0 0 1-2.1.9c-.8.2-1.63.3-2.5.3-1.34 0-2.65-.2-3.96-.6a12.2 12.2 0 0 1-3.5-1.7l1.53-2.98c.15.15.42.34.82.58.4.25.85.5 1.4.73.52.24 1.12.45 1.77.62s1.32.25 2 .25c1.9 0 2.86-.6 2.86-1.83 0-.4-.1-.7-.33-.98-.2-.27-.52-.5-.92-.7-.4-.2-.9-.4-1.46-.55s-1.2-.35-1.9-.55a16.04 16.04 0 0 1-2.22-.77c-.62-.27-1.15-.6-1.56-.98a3.65 3.65 0 0 1-.95-1.3c-.2-.5-.3-1.08-.3-1.77 0-.9.15-1.7.5-2.4.32-.7.78-1.3 1.38-1.75a6.3 6.3 0 0 1 2.06-1.07 8.54 8.54 0 0 1 2.52-.36c1.25 0 2.4.2 3.46.6 1.05.38 1.97.84 2.75 1.38l-1.52 2.8zM84.43 24v3.03H72.07V9.23H84.2v3.04H75.5v4.3h7.5v2.8h-7.5V24h8.9zm2.7 3.03V9.23h3.46V24h9.06v3.03H87.13zM114.1 24v3.03h-12.35V9.23h12.12v3.04h-8.66v4.3h7.5v2.8h-7.5V24h8.9zm1.25-6c0-1.07.2-2.15.6-3.2s.95-2.02 1.7-2.85c.76-.83 1.68-1.5 2.76-2.03 1.1-.52 2.33-.78 3.72-.78 1.63 0 3.05.36 4.24 1.08 1.2.72 2.1 1.65 2.67 2.8l-2.65 1.84a4.55 4.55 0 0 0-.86-1.27 4.28 4.28 0 0 0-1.07-.82 4.8 4.8 0 0 0-1.2-.44 5.75 5.75 0 0 0-1.23-.14c-.87 0-1.63.18-2.27.53a5 5 0 0 0-1.6 1.36 6.02 6.02 0 0 0-.97 1.9 7.18 7.18 0 0 0-.33 2.1c0 .8.13 1.55.38 2.28.25.73.6 1.37 1.06 1.92.45.55 1 1 1.65 1.33s1.35.5 2.1.5c.4 0 .83-.05 1.27-.15s.84-.26 1.24-.48c.4-.2.75-.5 1.1-.84s.6-.75.8-1.24l2.82 1.63a5.33 5.33 0 0 1-1.22 1.77c-.52.5-1.12.94-1.78 1.3-.66.34-1.36.6-2.1.8a9.26 9.26 0 0 1-2.22.26c-1.27 0-2.43-.26-3.48-.8a9.03 9.03 0 0 1-2.72-2.1c-.76-.85-1.35-1.83-1.77-2.92s-.65-2.2-.65-3.35zm18.26 9.03V9.23h3.47v17.8h-3.46zm14.77.13c-1.3 0-2.5-.26-3.55-.77s-1.97-1.2-2.73-2.04a9.24 9.24 0 0 1-1.77-2.9 9.22 9.22 0 0 1-.63-3.32c0-1.2.22-2.32.66-3.4a9.4 9.4 0 0 1 1.83-2.9c.77-.82 1.7-1.5 2.76-1.98 1.07-.5 2.23-.74 3.48-.74 1.3 0 2.46.26 3.52.8a8.8 8.8 0 0 1 2.72 2.05 9.5 9.5 0 0 1 1.75 2.9 9.16 9.16 0 0 1 .63 3.32 9.02 9.02 0 0 1-.65 3.38 9.22 9.22 0 0 1-1.8 2.86 8.7 8.7 0 0 1-2.75 1.98c-1.07.5-2.23.73-3.48.73zm-5.16-9.02c0 .77.12 1.5.36 2.23a5.95 5.95 0 0 0 1 1.9c.45.55 1 1 1.64 1.33.64.33 1.37.5 2.2.5.83 0 1.57-.17 2.2-.5s1.2-.8 1.64-1.38a6.1 6.1 0 0 0 1-1.9c.22-.72.34-1.45.34-2.18 0-.77-.12-1.5-.37-2.23a6.16 6.16 0 0 0-1-1.9 4.9 4.9 0 0 0-1.64-1.3c-.65-.34-1.37-.5-2.17-.5-.84 0-1.6.17-2.24.52s-1.2.8-1.62 1.35a6.05 6.05 0 0 0-1 1.9c-.22.7-.34 1.43-.34 2.17zm19.97-2.5v11.4h-3.46V9.23h2.7l9.26 11.68V9.27h3.46v17.76h-2.8l-9.15-11.4zm28 8.36v3.03h-12.34V9.23h12.12v3.04h-8.66v4.3h7.47v2.8h-7.5V24h8.9z"/><path fill="#0277BD" d="M0 0h47.17v50H0V0z"/><circle cx="18.514" cy="10.217" r="5.383" fill="#FFF" stroke="#3BBDE0" stroke-width="1.367" stroke-miterlimit="10" stroke-linecap="round" stroke-linejoin="round"/><path fill="#41C6E5" d="M33.15 21.16A1.83 1.83 0 0 0 31.33 23v4.32a.6.6 0 0 1-1.22 0v-6.08a1.83 1.83 0 0 0-3.65 0v4.86a.6.6 0 0 1-1.22 0v-8a1.83 1.83 0 0 0-3.65 0v8a.6.6 0 0 1-.6.6.6.6 0 0 1-.62-.6V10.55a1.83 1.83 0 0 0-3.65 0V32.2l-2.47-3.4c-.73-1.1-2.16-1.5-3.2-.84-1.05.66-1.3 2.1-.58 3.23 0 0 3.98 6 5.68 8.6 1.7 2.57 4.44 4.6 9.6 4.6 8.5 0 9.26-6.58 9.26-8.55V23a1.84 1.84 0 0 0-1.85-1.84z"/><path fill="#FFF" d="M92.5 43.03c-.36 0-.7-.06-1-.18a2.35 2.35 0 0 1-.8-.5 2.22 2.22 0 0 1-.72-1.65c0-.34.08-.66.23-.96.17-.3.4-.54.66-.74.27-.2.6-.37 1-.5a4.37 4.37 0 0 1 1.25-.16c.33 0 .65.03.97.08.3.06.6.14.83.24v-.42c0-.48-.14-.86-.42-1.12-.27-.26-.68-.4-1.22-.4-.4 0-.78.08-1.15.22-.36.14-.74.34-1.14.6l-.57-1.18c.93-.62 1.95-.93 3.04-.93 1.06 0 1.88.25 2.46.77.58.52.87 1.27.87 2.25v2.28c0 .2.04.34.1.42.08.08.2.13.35.14v1.6a4.13 4.13 0 0 1-.82.1c-.36 0-.63-.1-.82-.25a1.03 1.03 0 0 1-.36-.63l-.04-.4c-.33.42-.72.75-1.2.97s-.96.33-1.5.33zm.52-1.38c.32 0 .62-.05.9-.16.3-.12.5-.27.67-.46.2-.16.3-.34.3-.53v-.83a4.57 4.57 0 0 0-1.48-.28c-.5 0-.9.1-1.2.32-.3.2-.46.5-.46.83a1 1 0 0 0 .37.8c.24.2.54.3.9.3zm8.28 1.38a5.65 5.65 0 0 1-1.8-.3 4.37 4.37 0 0 1-1.52-.84l.7-1.18c.45.3.88.56 1.3.72.43.16.85.24 1.27.24.38 0 .67-.07.9-.2.2-.15.3-.35.3-.6s-.12-.46-.37-.58-.66-.27-1.23-.42c-.48-.13-.88-.26-1.22-.38s-.6-.26-.8-.42a1.4 1.4 0 0 1-.46-.53 1.7 1.7 0 0 1-.14-.72 2.2 2.2 0 0 1 .82-1.77c.27-.2.57-.37.92-.48a3.7 3.7 0 0 1 1.14-.17c.57 0 1.08.1 1.56.24.48.16.92.42 1.32.77l-.75 1.15c-.38-.28-.74-.48-1.1-.62s-.7-.2-1.03-.2c-.32 0-.58.07-.8.2-.2.13-.32.34-.32.63 0 .13.03.24.08.32.05.1.13.16.24.23.12.07.26.14.45.2s.4.12.67.2c.5.12.94.25 1.3.38s.65.28.88.45.4.36.5.58.17.5.17.8c0 .72-.27 1.28-.8 1.7-.53.42-1.26.62-2.17.62zm10.93 0c-.6 0-1.14-.1-1.6-.3s-.9-.5-1.22-.84-.58-.77-.75-1.22a3.94 3.94 0 0 1-.27-1.45c0-.5.1-1 .27-1.45.17-.46.43-.86.76-1.2s.74-.64 1.22-.85c.48-.2 1-.3 1.6-.3s1.14.1 1.6.3c.48.2.9.5 1.22.84.33.35.58.75.76 1.2.18.46.27.95.27 1.46 0 .5-.1 1-.27 1.45-.18.45-.43.86-.75 1.2a3.55 3.55 0 0 1-1.2.84c-.48.2-1.02.3-1.62.3zm-1.92-3.8c0 .33.06.63.16.9.1.26.23.5.4.68a1.8 1.8 0 0 0 1.37.63 1.8 1.8 0 0 0 1.36-.62 2.15 2.15 0 0 0 .4-.68 2.6 2.6 0 0 0 .15-.9c0-.32-.05-.6-.15-.88a2.2 2.2 0 0 0-.4-.7 1.8 1.8 0 0 0-1.37-.62c-.27 0-.52.06-.75.17-.24.1-.44.26-.6.45-.2.2-.32.43-.42.7a2.56 2.56 0 0 0-.15.88zm11.42 3.8c-.58 0-1.08-.13-1.5-.4a2.76 2.76 0 0 1-1.02-1.03v4.27h-1.87V35.55h1.64v1.26c.27-.42.62-.76 1.04-1 .44-.25.94-.37 1.5-.37.5 0 .95.1 1.37.3s.78.47 1.08.8c.3.35.54.75.72 1.2s.26.96.26 1.48c0 .54-.08 1.04-.24 1.5a3.84 3.84 0 0 1-.68 1.22 3.1 3.1 0 0 1-1 .8c-.4.2-.83.3-1.3.3zm-.63-1.6c.27 0 .53-.06.77-.18s.44-.28.6-.5.3-.43.4-.7c.1-.28.14-.56.14-.85 0-.3-.04-.6-.14-.86a2.13 2.13 0 0 0-.43-.7 1.95 1.95 0 0 0-1.45-.62c-.18 0-.36.03-.55.1-.18.06-.36.14-.52.25s-.3.24-.4.4a1.6 1.6 0 0 0-.3.5v1.7c.17.43.43.78.77 1.05.35.27.72.4 1.12.4zm7.4 3.24c.1.06.28.12.52.18.23.05.47.08.73.08.24 0 .43-.03.57-.1.14-.07.2-.2.2-.36s-.06-.3-.2-.36a1.17 1.17 0 0 0-.52-.1c-.2 0-.4.03-.62.07a7.83 7.83 0 0 0-.5.1l.6-1.16a3.8 3.8 0 0 1-1.5-.37 3.63 3.63 0 0 1-1.1-.85c-.3-.34-.53-.73-.7-1.17s-.24-.9-.24-1.38c0-.52.1-1 .27-1.46s.44-.86.78-1.2c.33-.35.74-.62 1.22-.83a4.04 4.04 0 0 1 1.6-.3c.8 0 1.5.17 2.06.5.56.36.98.8 1.26 1.37l-1.83.56c-.17-.27-.38-.48-.64-.62s-.55-.22-.87-.22a1.8 1.8 0 0 0-1.37.6 2.07 2.07 0 0 0-.4.7c-.1.27-.16.57-.16.9 0 .32.05.62.16.9.1.26.24.5.4.7.18.2.4.34.62.44.23.1.48.17.74.17.33 0 .64-.1.92-.26.3-.16.5-.37.6-.6l1.83.55a3.13 3.13 0 0 1-1.1 1.27c-.48.33-1.08.53-1.78.6l-.3.47a1.82 1.82 0 0 1 .46-.05c.32 0 .6.07.84.23.23.15.35.4.35.74 0 .35-.15.64-.45.88-.3.23-.74.35-1.35.35-.3 0-.6-.03-.84-.1s-.47-.1-.66-.18l.38-.7zm8.92-1.64a4.02 4.02 0 0 1-1.6-.3 3.6 3.6 0 0 1-2-2.05 3.94 3.94 0 0 1-.25-1.45c0-.5.08-1 .26-1.45s.43-.86.77-1.2a3.62 3.62 0 0 1 1.2-.85c.48-.2 1.02-.3 1.62-.3s1.13.1 1.6.3c.47.2.87.5 1.2.84.34.35.6.75.77 1.2s.25.95.25 1.46c0 .5-.08 1-.26 1.45s-.44.86-.77 1.2-.73.63-1.2.84-1 .3-1.6.3zm.88-8.57c-.22 0-.4-.03-.56-.1s-.3-.14-.44-.22a5.34 5.34 0 0 0-.4-.2.96.96 0 0 0-.44-.1c-.16 0-.28.02-.37.08-.1.07-.16.15-.2.23s-.08.16-.1.23c0 .07 0 .1 0 .12h-1.04c0-.1.02-.23.08-.43.06-.2.15-.4.27-.6s.3-.38.52-.53c.2-.16.47-.23.77-.23.2 0 .4.04.55.1s.3.16.43.24c.14.07.27.15.4.22s.3.1.46.1.3-.03.4-.1a.73.73 0 0 0 .32-.46.92.92 0 0 0 .02-.14h1.04c0 .07-.03.2-.08.4a2.2 2.2 0 0 1-.82 1.15c-.22.18-.5.26-.82.26zm-2.8 4.77c0 .33.05.62.14.9.1.26.24.5.4.68a1.8 1.8 0 0 0 1.37.63 1.8 1.8 0 0 0 1.38-.62c.17-.18.3-.42.4-.7s.15-.56.15-.88c0-.32-.05-.62-.14-.9a2.16 2.16 0 0 0-.42-.7 1.78 1.78 0 0 0-1.37-.6c-.26 0-.5.06-.74.17s-.44.25-.6.45a2.16 2.16 0 0 0-.42.7 2.56 2.56 0 0 0-.14.88zm10.4 3.8c-.57 0-1.1-.1-1.58-.3s-.9-.48-1.22-.82c-.34-.34-.6-.74-.78-1.2s-.27-.93-.27-1.44c0-.52.1-1 .27-1.47.17-.48.43-.88.77-1.23s.73-.63 1.2-.84c.5-.2 1.03-.3 1.63-.3s1.13.1 1.6.3c.47.2.88.48 1.2.83.34.34.6.75.76 1.2s.25.94.25 1.43c0 .1 0 .23 0 .34s-.02.2-.04.28h-5.66c.03.3.1.55.2.77.12.22.27.4.44.57.18.15.38.28.6.36s.46.12.7.12c.38 0 .73-.1 1.06-.27.34-.18.56-.42.68-.72l1.6.45c-.26.57-.7 1.03-1.28 1.4s-1.3.53-2.13.53zm1.92-4.43c-.05-.55-.25-1-.6-1.32a1.86 1.86 0 0 0-1.32-.5 1.88 1.88 0 0 0-.7.14c-.23.1-.42.2-.6.37s-.3.34-.4.56-.17.47-.2.74h3.82zm5.85 4.43a5.66 5.66 0 0 1-1.8-.3 4.37 4.37 0 0 1-1.52-.84l.7-1.18c.45.3.9.56 1.3.72.44.16.86.24 1.28.24.37 0 .67-.07.88-.2.23-.15.33-.35.33-.6s-.12-.46-.38-.58-.66-.27-1.22-.42c-.48-.13-.9-.26-1.22-.38s-.6-.26-.8-.42-.36-.33-.45-.53a1.7 1.7 0 0 1-.14-.72c0-.37.08-.7.22-1 .15-.3.35-.56.6-.77.27-.2.58-.37.93-.48a3.7 3.7 0 0 1 1.14-.17c.54 0 1.06.1 1.54.25.48.16.92.4 1.32.77l-.76 1.13a4.42 4.42 0 0 0-1.08-.6 2.97 2.97 0 0 0-1.04-.2c-.32 0-.6.05-.8.2s-.32.33-.32.62c0 .13.02.23.07.32a.68.68 0 0 0 .25.2c.1.08.26.14.44.2s.4.12.68.2c.5.12.94.25 1.3.38s.65.28.88.45.4.36.5.58.16.5.16.8c0 .72-.26 1.3-.8 1.7-.53.42-1.25.63-2.17.63z"/></svg>