<svg xmlns="http://www.w3.org/2000/svg" width="200" height="50"><path fill="#757575" d="M0 0h200v50H0V0z"/><path fill="#FFF" d="M41.54 24.72c0-.87.15-1.73.47-2.57s.78-1.6 1.38-2.27 1.33-1.2 2.2-1.62c.86-.42 1.85-.62 2.96-.62 1.3 0 2.43.28 3.4.86s1.65 1.32 2.12 2.24l-2.12 1.46a3.66 3.66 0 0 0-.68-1c-.27-.3-.56-.5-.86-.66s-.63-.28-.96-.35a4.63 4.63 0 0 0-.98-.12c-.7 0-1.3.14-1.8.42s-.95.64-1.3 1.1c-.33.43-.6.94-.76 1.5a5.73 5.73 0 0 0-.26 1.7c0 .62.1 1.23.3 1.8.2.6.48 1.1.85 1.54s.8.8 1.3 1.06a3.62 3.62 0 0 0 1.7.4c.32 0 .65-.04 1-.12.34-.08.67-.2 1-.38a3.7 3.7 0 0 0 .86-.67c.26-.28.48-.6.64-1l2.26 1.3c-.23.54-.55 1-.97 1.42s-.9.75-1.43 1.03a7.23 7.23 0 0 1-1.7.64c-.6.14-1.18.22-1.75.22-1.02 0-1.94-.22-2.78-.64a7.2 7.2 0 0 1-2.17-1.67 7.78 7.78 0 0 1-1.42-2.34 7.3 7.3 0 0 1-.5-2.68zm20.5 7.3c-1.04 0-2-.2-2.83-.6s-1.57-.96-2.17-1.63a7.38 7.38 0 0 1-1.4-2.32 7.36 7.36 0 0 1-.5-2.66c0-.95.16-1.86.52-2.72a7.5 7.5 0 0 1 1.46-2.3 7 7 0 0 1 2.22-1.6 6.55 6.55 0 0 1 2.78-.58c1.02 0 1.96.2 2.8.63.85.42 1.58.97 2.18 1.65.6.68 1.06 1.45 1.4 2.32.33.86.5 1.74.5 2.64 0 .94-.18 1.85-.52 2.7s-.83 1.62-1.44 2.28-1.35 1.2-2.2 1.58a6.52 6.52 0 0 1-2.78.6zm-4.12-7.2c0 .6.1 1.2.28 1.78.18.57.45 1.08.8 1.52.36.44.8.8 1.3 1.06.52.26 1.1.4 1.76.4.66 0 1.25-.14 1.77-.4a4.04 4.04 0 0 0 1.3-1.1c.35-.46.62-.97.8-1.53.18-.57.27-1.15.27-1.73 0-.62-.1-1.2-.3-1.78a4.93 4.93 0 0 0-.8-1.52 3.94 3.94 0 0 0-1.3-1.05 3.78 3.78 0 0 0-1.74-.4c-.67 0-1.26.14-1.78.42s-.96.62-1.3 1.07c-.35.44-.6.95-.8 1.52a5.7 5.7 0 0 0-.26 1.72zm15.94-2v9.1H71.1v-14.2h2.14l7.4 9.32v-9.3h2.76v14.18h-2.24l-7.3-9.1zm20.96-1.38a3.4 3.4 0 0 0-.5-.38 6.4 6.4 0 0 0-.9-.47c-.37-.17-.75-.3-1.16-.4s-.84-.16-1.26-.16c-.76 0-1.33.14-1.7.42-.38.28-.56.67-.56 1.18 0 .3.07.53.2.73.15.2.35.36.62.5.26.15.6.3 1 .4s.88.25 1.42.4a20.8 20.8 0 0 1 1.9.6c.55.2 1.03.47 1.43.8.4.3.7.7.92 1.14s.32 1 .32 1.66c0 .76-.15 1.4-.43 1.95a3.63 3.63 0 0 1-1.15 1.32 5.07 5.07 0 0 1-1.68.73 8.4 8.4 0 0 1-2 .23c-1.06 0-2.1-.16-3.15-.48a9.66 9.66 0 0 1-2.8-1.36l1.22-2.38c.12.12.33.27.65.47.3.2.67.38 1.1.58s.9.36 1.42.5 1.05.2 1.6.2c1.52 0 2.28-.5 2.28-1.46 0-.3-.1-.57-.26-.78-.18-.22-.42-.4-.74-.56a6.98 6.98 0 0 0-1.16-.44c-.46-.14-.96-.28-1.52-.44a12.7 12.7 0 0 1-1.77-.6c-.5-.23-.92-.5-1.25-.8a2.93 2.93 0 0 1-.75-1.03c-.17-.4-.25-.88-.25-1.42 0-.72.13-1.36.4-1.92a3.88 3.88 0 0 1 1.1-1.4 5.04 5.04 0 0 1 1.66-.85c.62-.2 1.3-.28 2.02-.28 1 0 1.92.15 2.76.47s1.57.67 2.2 1.1l-1.22 2.24zm9.8 8.14c.65 0 1.2-.14 1.65-.4a3.23 3.23 0 0 0 1.08-1.04c.27-.43.46-.92.58-1.47.1-.56.17-1.13.17-1.7V17.7h2.74v7.24c0 .97-.12 1.88-.36 2.74-.23.85-.6 1.6-1.1 2.24a5.26 5.26 0 0 1-1.92 1.52c-.8.37-1.73.56-2.82.56-1.14 0-2.1-.2-2.9-.6-.8-.4-1.43-.9-1.92-1.55a6.2 6.2 0 0 1-1.07-2.25 10.62 10.62 0 0 1-.33-2.66v-7.24h2.76v7.24c0 .6.05 1.17.17 1.73.1.54.3 1.03.58 1.46.27.42.63.77 1.07 1.03.44.25.98.38 1.62.38zm9 2.34v-14.2h2.76V29.5h7.24v2.42h-10zm19.94-11.78h-4.54v11.78h-2.74V20.14h-4.54v-2.42h11.82v2.42zm11.62 9.36v2.42h-9.86v-14.2H145v2.42h-6.92v3.42h5.98v2.24h-5.98v3.7h7.1zm1.48-1.86v-2.42h6.06v2.42h-6.06zm11.44-4.82v9.1h-2.76v-14.2h2.14l7.4 9.32v-9.3h2.76v14.18h-2.24l-7.3-9.1zm18.56 9.2c-1.04 0-2-.2-2.83-.6s-1.58-.96-2.18-1.63a7.36 7.36 0 0 1-1.4-2.32 7.34 7.34 0 0 1-.5-2.66c0-.95.16-1.86.52-2.72a7.5 7.5 0 0 1 1.46-2.3 6.98 6.98 0 0 1 2.2-1.6 6.54 6.54 0 0 1 2.8-.58c1 0 1.95.2 2.8.63s1.57.97 2.17 1.65c.6.68 1.06 1.45 1.4 2.32.33.86.5 1.74.5 2.64a7.35 7.35 0 0 1-1.96 4.98 6.9 6.9 0 0 1-2.2 1.58 6.52 6.52 0 0 1-2.78.6zm-4.12-7.2c0 .6.1 1.2.28 1.78.18.57.45 1.08.8 1.52.36.44.8.8 1.3 1.06.52.26 1.1.4 1.76.4.66 0 1.25-.14 1.77-.4.5-.3.94-.65 1.3-1.1s.62-.97.8-1.53a5.65 5.65 0 0 0-.02-3.5 4.93 4.93 0 0 0-.82-1.53 3.94 3.94 0 0 0-1.3-1.05 3.78 3.78 0 0 0-1.72-.4c-.67 0-1.26.14-1.78.42a3.92 3.92 0 0 0-1.3 1.07c-.35.44-.6.95-.8 1.52a5.6 5.6 0 0 0-.26 1.72zm21.64-3.38a3.48 3.48 0 0 0-.5-.38 6.4 6.4 0 0 0-.9-.47c-.37-.17-.75-.3-1.16-.4s-.84-.16-1.26-.16c-.76 0-1.33.14-1.7.42s-.56.67-.56 1.18c0 .3.07.53.2.73.15.2.35.36.62.5s.6.3 1 .4c.4.13.88.25 1.42.4.7.17 1.32.37 1.9.6.55.2 1.03.47 1.43.8.4.3.7.7.9 1.14s.33 1 .33 1.66c0 .76-.15 1.4-.43 1.95a3.64 3.64 0 0 1-1.16 1.32 5.06 5.06 0 0 1-1.68.73 8.4 8.4 0 0 1-2 .23c-1.05 0-2.1-.16-3.15-.48a9.66 9.66 0 0 1-2.8-1.36l1.22-2.38c.1.12.33.27.64.47s.7.38 1.1.58.92.36 1.44.5c.5.13 1.05.2 1.6.2 1.5 0 2.27-.5 2.27-1.46 0-.3-.08-.57-.26-.78-.18-.22-.42-.4-.74-.56a6.95 6.95 0 0 0-1.17-.44c-.46-.14-.97-.28-1.53-.44-.68-.2-1.27-.4-1.77-.6-.5-.23-.9-.5-1.25-.8a2.93 2.93 0 0 1-.75-1.03c-.16-.4-.25-.88-.25-1.42 0-.72.14-1.36.4-1.92a3.88 3.88 0 0 1 1.1-1.4c.5-.38 1.03-.66 1.66-.85s1.3-.28 2.03-.28c1 0 1.92.15 2.76.47s1.57.67 2.2 1.1l-1.22 2.24z"/><path fill="#424242" d="M0 0h35.84v50H0V0z"/><path fill="#A3ABB0" d="M17.43 10.4c-7.88-.06-14.32 6.27-14.4 14.15-.06 7.88 6.28 14.33 14.16 14.4 7.87.06 14.3-6.27 14.38-14.15.06-7.88-6.27-14.33-14.15-14.4zm-.23 26.53c-6.76-.06-12.2-5.6-12.14-12.36.05-6.77 5.6-12.2 12.35-12.15 6.78.06 12.22 5.6 12.16 12.36-.06 6.76-5.6 12.2-12.36 12.15z"/><circle cx="17.308" cy="24.676" r="11.039" fill="#A3ABB0"/><path fill="#424242" d="M23.92 27.93l-3.36 3.35-3.25-3.25-3.25 3.25-3.35-3.35 3.25-3.25-3.25-3.26 3.35-3.35 3.26 3.25 3.26-3.25 3.36 3.35-3.26 3.26 3.26 3.25z"/></svg>