<svg xmlns="http://www.w3.org/2000/svg" width="35" height="35"><path fill="#707E89" d="M12.53 18.03H28.3c.3 0 .55.25.55.56s-.25.56-.56.56H12.52c-.3 0-.57-.26-.57-.57s.26-.57.57-.57zm-1.13-4.5h18c.32 0 .58.25.58.56 0 .3-.26.55-.57.55h-18c-.3 0-.56-.25-.56-.56 0-.32.25-.57.56-.57zm-10.13-9c-.74 0-.76 1.12 0 1.12h4.05c.1.4.72 3.16 1.48 6.45.8 3.52 1.63 8.25 1.8 8.9.16.55.3 1.18.7 1.73.4.55 1.13.93 2.1.93h18.02c.96 0 1.7-.38 2.1-.93.4-.55.54-1.18.7-1.74.3-1.13 1.82-7.83 2.12-8.96.17-.64.22-1.3.02-1.9-.2-.6-.8-1.12-1.57-1.12H10.27c-.74 0-.75 1.13 0 1.13h22.5c.38 0 .42.08.52.35.1.26.08.75-.05 1.24-.3 1.12-1.82 7.82-2.13 8.96-.15.56-.3 1.06-.5 1.35-.23.3-.48.48-1.2.48H11.4c-.72 0-.97-.18-1.2-.48-.2-.3-.35-.78-.5-1.35-.13-.48-1-5.33-1.8-8.85-.8-3.52-1.58-6.9-1.58-6.9-.05-.25-.28-.43-.55-.43h-4.5zm25.9 20.26c-1.55 0-2.82 1.25-2.82 2.8 0 1.55 1.27 2.8 2.8 2.8 1.57.02 2.83-1.25 2.83-2.8 0-1.55-1.27-2.8-2.82-2.8zm0 1.1c.93 0 1.68.76 1.68 1.7s-.75 1.7-1.7 1.7c-.92 0-1.68-.76-1.68-1.7s.76-1.7 1.7-1.7zm-13.52-1.1c-1.54 0-2.8 1.25-2.8 2.8 0 1.55 1.26 2.8 2.8 2.8 1.55.02 2.82-1.25 2.82-2.8 0-1.55-1.27-2.8-2.82-2.8zm0 1.1c.94 0 1.7.76 1.7 1.7s-.75 1.7-1.7 1.7c-.93 0-1.7-.76-1.7-1.7s.76-1.7 1.7-1.7z"/></svg>