<svg xmlns="http://www.w3.org/2000/svg" width="30" height="30"><circle cx="14.95" cy="15" r="14.649" fill="#039BE5"/><path fill="#FFF" d="M19.36 19.2v2.22h-8.12c.1-.8.4-1.6.8-2.3.4-.7 1.3-1.7 2.6-2.92 1-1 1.7-1.6 1.9-2 .32-.5.52-1 .52-1.4 0-.5-.1-.9-.4-1.2-.3-.3-.7-.4-1.2-.4s-.9.1-1.2.4c-.3.3-.5.8-.5 1.5l-2.32-.2c.1-1.3.6-2.22 1.3-2.82.7-.6 1.6-.8 2.7-.8 1.22 0 2.12.3 2.82 1 .7.6 1 1.4 1 2.4 0 .5-.1 1.1-.3 1.6-.2.5-.5 1.02-.9 1.62-.3.4-.8.9-1.5 1.5s-1.2 1.1-1.4 1.3c-.2.2-.4.4-.5.6h4.7v-.1z"/></svg>