<svg xmlns="http://www.w3.org/2000/svg" width="30" height="30"><circle cx="14.95" cy="15" r="14.649" fill="#039BE5"/><path fill="#FFF" d="M11.44 18.1l2.3-.3c.1.6.3 1 .6 1.3.3.3.7.5 1.1.5.5 0 .92-.2 1.22-.5.3-.4.5-.9.5-1.5s-.2-1-.5-1.4c-.3-.3-.7-.5-1.1-.5-.3 0-.7.1-1.1.2l.3-1.9c.6 0 1.1-.1 1.4-.4.3-.3.5-.7.5-1.2 0-.4-.1-.7-.4-1-.2-.2-.6-.4-1-.4s-.7.1-1 .4c-.3.3-.5.7-.5 1.2l-2.12-.4c.1-.7.4-1.3.7-1.82.3-.4.7-.8 1.3-1 .5-.3 1.1-.4 1.8-.4 1.1 0 2.12.4 2.72 1.1.6.6.9 1.3.9 2 0 1.12-.6 1.92-1.7 2.52.7.1 1.3.5 1.7 1 .4.5.6 1.1.6 1.9 0 1.1-.4 2.02-1.2 2.72-.8.8-1.7 1.1-2.9 1.1-1.1 0-2-.3-2.72-.9-.9-.4-1.3-1.3-1.4-2.3z"/></svg>